<svg xmlns="http://www.w3.org/2000/svg" width="960" height="540" viewBox="0 0 960 540" role="img" aria-label="VIX、收益与波动变化的关系"><rect width="960" height="540" fill="#fff"/><text x="48" y="60" font-family="Arial, Microsoft YaHei, sans-serif" font-size="26" font-weight="700" fill="#111827">VIX、收益与波动变化的关系</text><line x1="95" y1="420" x2="850" y2="420" stroke="#6b7280" stroke-width="3" stroke-linecap="round"/><line x1="95" y1="420" x2="95" y2="120" stroke="#6b7280" stroke-width="3" stroke-linecap="round"/><path d="M120 280 C210 240 290 300 360 260 C430 220 500 310 570 250 C650 180 730 245 820 210" fill="none" stroke="#2563eb" stroke-width="4"/><path d="M120 210 C210 250 290 205 360 255 C430 310 500 220 570 285 C650 360 730 295 820 335" fill="none" stroke="#dc2626" stroke-width="4"/><text x="640" y="160" font-family="Arial, Microsoft YaHei, sans-serif" font-size="17" font-weight="600" fill="#2563eb">VIX / 波动变化</text><text x="645" y="365" font-family="Arial, Microsoft YaHei, sans-serif" font-size="17" font-weight="600" fill="#dc2626">S&amp;P500 收益</text><text x="135" y="500" font-family="Arial, Microsoft YaHei, sans-serif" font-size="16" font-weight="400" fill="#4b5563">教学示意：讲义强调收益下跌常伴随波动率上升，作为杠杆效应/风险情绪的读图直觉。</text></svg>
